# xmcd CD database file
#
# Track frame offsets:
#	150
#	13349
#	29154
#	47542
#	64393
#	81736
#	102975
#	113090
#	124661
#	143856
#	158088
#
# Disc length: 2392 seconds
#
# Revision: 0
# Processed by: cddbd v1.5.1PL2 Copyright (c) Steve Scherf et al.
# Submitted via: CDex 1.51
#
DISCID=9e09560b
DTITLE=Bauernfänger - Mais la Vie
DYEAR=2004
DGENRE=Jazz
TTITLE0=I can´t give you anything but love
TTITLE1=Summer Samba
TTITLE2=Orpheo Negro
TTITLE3=Bei dir war es immer so schön
TTITLE4=Romale
TTITLE5=What a wonderful World
TTITLE6=Fish Waltz
TTITLE7=Coconut Woman
TTITLE8=Mais la vie
TTITLE9=Daje Daje
TTITLE10=A Men Savore
EXTD=YEAR: 2004
EXTT0=
EXTT1=
EXTT2=
EXTT3=
EXTT4=
EXTT5=
EXTT6=
EXTT7=
EXTT8=
EXTT9=
EXTT10=
PLAYORDER=
